<?xml version="1.0" encoding="utf-8"?>
<!-- Generator: Adobe Illustrator 25.0.0, SVG Export Plug-In . SVG Version: 6.00 Build 0)  -->
<svg version="1.1" id="Layer_1" xmlns="http://www.w3.org/2000/svg" xmlns:xlink="http://www.w3.org/1999/xlink" x="0px" y="0px"
	 viewBox="0 0 3000 641.51" style="enable-background:new 0 0 3000 641.51;" xml:space="preserve">
<style type="text/css">
	.st0{fill:#93C954;}
	.st1{fill:#F6EF7C;}
	.st2{fill:#BF2026;}
	.st3{fill:#1E4F7A;}
	.st4{fill:#EB7D2F;}
	.st5{fill:#F5994B;}
	.st6{fill:#2F6AB4;}
</style>
<g>
	<g>
		<g>
			<path class="st3" d="M1940.21,337.26c0,33.37-27.06,60.42-60.43,60.42c-33.37,0-60.43-27.06-60.43-60.42
				c0-33.37,27.06-60.43,60.43-60.43C1913.16,276.83,1940.21,303.88,1940.21,337.26"/>
			<path class="st3" d="M1879.79,256.69c44.41,0,80.56,36.14,80.56,80.56c0,44.42-36.14,80.56-80.56,80.56
				c-44.42,0-80.57-36.13-80.57-80.56C1799.22,292.83,1835.36,256.69,1879.79,256.69 M1879.79,249.2
				c-48.63,0-88.06,39.42-88.06,88.05c0,48.63,39.43,88.05,88.06,88.05c48.63,0,88.05-39.42,88.05-88.05
				C1967.84,288.62,1928.42,249.2,1879.79,249.2"/>
			<path class="st3" d="M1879.79,229.07c59.65,0,108.18,48.53,108.18,108.19c0,59.65-48.53,108.18-108.18,108.18
				c-59.66,0-108.19-48.54-108.19-108.18C1771.6,277.6,1820.13,229.07,1879.79,229.07 M1879.79,221.58
				c-63.89,0-115.68,51.79-115.68,115.68c0,63.89,51.79,115.68,115.68,115.68c63.88,0,115.68-51.79,115.68-115.68
				C1995.46,273.37,1943.67,221.58,1879.79,221.58"/>
			<path class="st3" d="M1879.79,201.44c74.89,0,135.81,60.92,135.81,135.81c0,74.9-60.92,135.82-135.81,135.82
				s-135.82-60.93-135.82-135.82C1743.97,262.37,1804.9,201.44,1879.79,201.44 M1879.79,193.95c-79.15,0-143.31,64.16-143.31,143.3
				c0,79.15,64.16,143.32,143.31,143.32c79.15,0,143.31-64.16,143.31-143.32C2023.09,258.1,1958.94,193.95,1879.79,193.95"/>
			<path class="st3" d="M1879.79,173.82c90.12,0,163.44,73.32,163.44,163.43c0,90.13-73.32,163.45-163.44,163.45
				c-90.13,0-163.45-73.32-163.45-163.45C1716.34,247.13,1789.66,173.82,1879.79,173.82 M1879.79,166.32
				c-94.4,0-170.94,76.53-170.94,170.93c0,94.41,76.53,170.94,170.94,170.94c94.4,0,170.93-76.53,170.93-170.94
				C2050.72,242.85,1974.19,166.32,1879.79,166.32"/>
		</g>
		<g>
			<g>
				<path class="st4" d="M1175.8,0h118.8v508.18h-51.08c-37.4,0-67.71-30.33-67.71-67.72V0z"/>
				<path class="st4" d="M1535.51,0h118.8v440.47c0,37.39-30.32,67.72-67.72,67.72h-51.08V0z"/>
				<rect x="1355.65" y="171.59" class="st4" width="118.8" height="336.59"/>
			</g>
			<g>
				<path class="st5" d="M1175.8,0h118.8v508.18h-51.08c-37.4,0-67.71-30.33-67.71-67.72V0z"/>
				<path class="st5" d="M1535.51,0h118.8v440.47c0,37.39-30.32,67.72-67.72,67.72h-51.08V0z"/>
				<rect x="1355.65" y="171.59" class="st5" width="118.8" height="336.59"/>
			</g>
		</g>
	</g>
	<path class="st3" d="M362.33,33.01v475.18h-118.8v-21.12c-23.1,18.48-51.48,29.04-84.48,29.04C67.98,516.11,0,440.21,0,339.9
		s67.98-176.21,159.05-176.21c33,0,61.38,10.56,84.48,29.04V33.01H362.33z M243.53,339.9c0-34.98-25.74-61.38-60.72-61.38
		c-34.98,0-60.72,26.4-60.72,61.38c0,34.98,25.74,61.38,60.72,61.38C217.79,401.27,243.53,374.88,243.53,339.9z"/>
	<path class="st3" d="M415.77,71.29c0-40.92,31.02-71.28,71.94-71.28c40.92,0,71.94,30.36,71.94,71.28
		c0,40.92-31.02,71.28-71.94,71.28C446.79,142.56,415.77,112.21,415.77,71.29z M428.31,171.6h118.8v336.59h-118.8V171.6z"/>
	<path class="st3" d="M965.52,607.19l-122.1,34.32c-3.3-17.82-17.82-29.04-38.28-29.04h-94.38c-69.96,0-116.16-40.92-116.16-100.98
		c0-38.28,18.48-75.24,48.84-93.72c-27.06-26.4-43.56-62.7-43.56-104.28c0-85.8,69.96-149.81,163.02-149.81
		c23.1,0,44.22,3.96,63.36,11.22c11.88-38.28,48.18-62.04,97.02-62.04h29.7v109.56h-23.76c-11.88,0-21.78,4.62-25.74,13.2
		c14.52,22.44,22.44,48.84,22.44,77.88c0,85.8-70.62,149.82-163.01,149.82c-11.88,0-23.76-1.32-34.98-3.3
		c-9.24,5.28-14.52,13.2-14.52,21.12c0,9.9,8.58,16.5,21.12,16.5h93.72C898.87,497.63,949.68,537.89,965.52,607.19z M721.99,313.5
		c0,21.78,17.16,37.62,40.92,37.62c23.1,0,40.92-15.84,40.92-37.62c0-21.78-17.82-37.62-40.92-37.62
		C739.15,275.88,721.99,291.72,721.99,313.5z"/>
	<path class="st3" d="M974.09,71.29c0-40.92,31.02-71.28,71.94-71.28s71.94,30.36,71.94,71.28c0,40.92-31.02,71.28-71.94,71.28
		S974.09,112.21,974.09,71.29z M986.63,171.6h118.8v336.59h-118.8V171.6z"/>
	<path class="st3" d="M2321.07,166.32v122.1h-16.5c-51.48,0-77.22,27.06-77.22,69.3v150.48h-118.8V171.6h118.8v28.38
		c21.12-21.12,46.86-33.66,77.22-33.66H2321.07z"/>
	<path class="st3" d="M2492.65,415.14l-13.86,15.84v77.22H2360V33.01h118.8v236.27l82.5-97.68h153.11l-137.94,151.8l142.55,184.79
		h-155.75L2492.65,415.14z"/>
	<path class="st3" d="M2711.94,460.92l48.53-69.34c25.84,18.28,54.21,31.52,89.51,31.52c23.32,0,38.45-5.67,38.45-16.39
		c0-11.98-18.91-16.39-46.65-22.06c-49.16-10.08-119.76-25.21-119.76-104.63c0-73.12,62.4-108.42,139.93-108.42
		c59.88,0,101.48,20.17,133,40.97l-48.53,69.34c-25.84-14.5-50.43-25.21-80.05-25.21c-17.65,0-32.78,3.78-32.78,13.87
		c0,11.35,18.91,15.76,45.38,20.8c49.17,9.45,121.02,25.21,121.02,104.63c0,73.75-63.66,112.2-145.6,112.2
		C2790.1,508.19,2744.72,484.87,2711.94,460.92z"/>
</g>
</svg>
